<svg xmlns="http://www.w3.org/2000/svg" viewBox="0 0 400 260"><defs><style>.cls-1{fill:none;}</style></defs><g id="图层_2" data-name="图层 2"><g id="图层_1-2" data-name="图层 1"><rect class="cls-1" width="400" height="260"/><path d="M140,170a25,25,0,1,0,0,30v10h5V160h-5Zm-20,35a20,20,0,1,1,20-20A20,20,0,0,1,120,205Z"/><path d="M160,170V160h-5v50h5V185a20,20,0,0,1,20-20v-5A25,25,0,0,0,160,170Z"/><path d="M230,170a25,25,0,1,0,0,30v10h5V160h-5Zm-20,35a20,20,0,1,1,20-20A20,20,0,0,1,210,205Z"/><polygon points="345 60 334.9 60 334.9 50 329.9 50 329.9 60 320 60 315 60 315 65 315 80 320 80 320 65 329.9 65 334.9 65 345 65 345 80 350 80 350 65 350 60 345 60"/><rect x="325" y="75" width="15" height="5"/><polygon points="337.5 90 327.5 90 322.5 90 315 90 315 95 320 95 320 160 320 165 325 165 344.08 165 320.08 205 320 205 320 205.14 320 210 322.92 210 330 210 350 210 350 205 325.92 205 349.92 165 350 165 350 164.86 350 160 347.08 160 340 160 325 160 325 95 327.5 95 337.5 95 337.5 145 337.5 150 342.5 150 350 150 350 145 342.5 145 342.5 95 350 95 350 90 342.5 90 337.5 90"/><rect x="305" y="160" width="5" height="50"/><rect x="305" y="145" width="5" height="5"/><polygon points="82.5 65 110 65 110 60 82.5 60 82.5 50 77.5 50 77.5 60 50 60 50 65 77.5 65 82.5 65"/><polygon points="82.5 90 82.5 82.5 95 82.5 95 77.5 82.5 77.5 82.5 70 77.5 70 77.5 77.5 65 77.5 65 82.5 77.5 82.5 77.5 90 82.5 90"/><path d="M295,60H242.5V50h-5V60H210v85H145V100h12.5v35h5V100H175v35h5V100h10V95H180V60h-5V95H162.5V60h-5V95H145V60h-5V95H110V70h-5V95H55V70H50v30H77.5v10H50V210h5V160H75a25,25,0,0,0,15-45h15v35h5V110H82.5V100H140v50h75V80h10v70h45v-5H230V75H215V65h75V170a25,25,0,1,0,0,30v10h5V65h10v70h5V60H295ZM75,155H55V115H75L65,135v5H94.34A20,20,0,0,1,75,155Zm20-20H70.59L80,116.18l.23-.46A20,20,0,0,1,95,135Zm175,70a20,20,0,1,1,20-20A20,20,0,0,1,270,205Z"/><polygon points="270 80 270 75 257.5 75 252.5 75 240 75 240 80 252.5 80 252.5 102.5 240 102.5 240 107.5 252.5 107.5 252.5 130 240 130 240 135 252.5 135 257.5 135 270 135 270 130 257.5 130 257.5 107.5 270 107.5 270 102.5 257.5 102.5 257.5 80 270 80"/></g></g></svg>